<?xml version="1.0" encoding="UTF-8" standalone="no"?>
<svg
   xmlns:ns3="http://www.iki.fi/pav/software/textext/"
   xmlns:dc="http://purl.org/dc/elements/1.1/"
   xmlns:cc="http://creativecommons.org/ns#"
   xmlns:rdf="http://www.w3.org/1999/02/22-rdf-syntax-ns#"
   xmlns:svg="http://www.w3.org/2000/svg"
   xmlns="http://www.w3.org/2000/svg"
   xmlns:sodipodi="http://sodipodi.sourceforge.net/DTD/sodipodi-0.dtd"
   xmlns:inkscape="http://www.inkscape.org/namespaces/inkscape"
   width="50.600811mm"
   height="31.612219mm"
   viewBox="0 0 50.60081 31.612218"
   version="1.1"
   id="svg8"
   sodipodi:docname="projection.svg"
   inkscape:version="1.0.1 (3bc2e813f5, 2020-09-07)">
  <defs
     id="defs2">
    <marker
       style="overflow:visible"
       id="Arrow1Send"
       refX="0"
       refY="0"
       orient="auto"
       inkscape:stockid="Arrow1Send"
       inkscape:isstock="true">
      <path
         transform="matrix(-0.2,0,0,-0.2,-1.2,0)"
         style="fill:#000000;fill-opacity:1;fill-rule:evenodd;stroke:#000000;stroke-width:1pt;stroke-opacity:1"
         d="M 0,0 5,-5 -12.5,0 5,5 Z"
         id="path907" />
    </marker>
    <marker
       style="overflow:visible"
       id="marker1422"
       refX="0"
       refY="0"
       orient="auto"
       inkscape:stockid="Arrow1Sstart"
       inkscape:isstock="true">
      <path
         transform="matrix(0.2,0,0,0.2,1.2,0)"
         style="fill:#000000;fill-opacity:1;fill-rule:evenodd;stroke:#000000;stroke-width:1pt;stroke-opacity:1"
         d="M 0,0 5,-5 -12.5,0 5,5 Z"
         id="path1420" />
    </marker>
    <marker
       style="overflow:visible"
       id="marker1412"
       refX="0"
       refY="0"
       orient="auto"
       inkscape:stockid="Arrow1Sstart"
       inkscape:isstock="true">
      <path
         transform="matrix(0.2,0,0,0.2,1.2,0)"
         style="fill:#000000;fill-opacity:1;fill-rule:evenodd;stroke:#000000;stroke-width:1pt;stroke-opacity:1"
         d="M 0,0 5,-5 -12.5,0 5,5 Z"
         id="path1410" />
    </marker>
    <marker
       style="overflow:visible"
       id="marker1402"
       refX="0"
       refY="0"
       orient="auto"
       inkscape:stockid="Arrow1Sstart"
       inkscape:isstock="true">
      <path
         transform="matrix(0.2,0,0,0.2,1.2,0)"
         style="fill:#000000;fill-opacity:1;fill-rule:evenodd;stroke:#000000;stroke-width:1pt;stroke-opacity:1"
         d="M 0,0 5,-5 -12.5,0 5,5 Z"
         id="path1400" />
    </marker>
    <marker
       style="overflow:visible"
       id="marker1316"
       refX="0"
       refY="0"
       orient="auto"
       inkscape:stockid="Arrow1Sstart"
       inkscape:isstock="true">
      <path
         transform="matrix(0.2,0,0,0.2,1.2,0)"
         style="fill:#000000;fill-opacity:1;fill-rule:evenodd;stroke:#000000;stroke-width:1pt;stroke-opacity:1"
         d="M 0,0 5,-5 -12.5,0 5,5 Z"
         id="path1314" />
    </marker>
    <marker
       style="overflow:visible"
       id="Arrow1Send-7"
       refX="0"
       refY="0"
       orient="auto"
       inkscape:stockid="Arrow1Send"
       inkscape:isstock="true">
      <path
         transform="matrix(-0.2,0,0,-0.2,-1.2,0)"
         style="fill:#000000;fill-opacity:1;fill-rule:evenodd;stroke:#000000;stroke-width:1pt;stroke-opacity:1"
         d="M 0,0 5,-5 -12.5,0 5,5 Z"
         id="path907-3" />
    </marker>
  </defs>
  <sodipodi:namedview
     id="base"
     pagecolor="#ffffff"
     bordercolor="#666666"
     borderopacity="1.0"
     inkscape:pageopacity="0.0"
     inkscape:pageshadow="2"
     inkscape:zoom="1"
     inkscape:cx="63.06332"
     inkscape:cy="62.486085"
     inkscape:document-units="mm"
     inkscape:current-layer="id-46a9c332-51a4-4193-a0f9-c9646e7ea8f5"
     inkscape:document-rotation="0"
     showgrid="false"
     inkscape:window-width="1346"
     inkscape:window-height="1041"
     inkscape:window-x="130"
     inkscape:window-y="0"
     inkscape:window-maximized="0"
     borderlayer="false"
     fit-margin-top="0"
     fit-margin-left="0"
     fit-margin-right="0"
     fit-margin-bottom="0" />
  <metadata
     id="metadata5">
    <rdf:RDF>
      <cc:Work
         rdf:about="">
        <dc:format>image/svg+xml</dc:format>
        <dc:type
           rdf:resource="http://purl.org/dc/dcmitype/StillImage" />
        <dc:title></dc:title>
      </cc:Work>
    </rdf:RDF>
  </metadata>
  <g
     inkscape:label="Layer 1"
     inkscape:groupmode="layer"
     id="layer1"
     transform="translate(-80.348115,-61.751138)">
    <path
       style="fill:#ffff00;fill-opacity:0;stroke:#000000;stroke-width:0.336365;stroke-miterlimit:4;stroke-dasharray:none;stroke-dashoffset:0"
       id="path1598"
       sodipodi:type="arc"
       sodipodi:cx="81.517456"
       sodipodi:cy="77.297516"
       sodipodi:rx="16.113895"
       sodipodi:ry="16.113895"
       sodipodi:start="5.0141475"
       sodipodi:end="1.4076387"
       sodipodi:arc-type="arc"
       d="M 86.306501,61.911721 A 16.113895,16.113895 0 0 1 97.592673,78.413322 16.113895,16.113895 0 0 1 84.134912,93.197407"
       sodipodi:open="true" />
    <circle
       style="fill:#fff00f;fill-opacity:1;stroke:#000000;stroke-width:0.0510764;stroke-miterlimit:4;stroke-dasharray:none;stroke-dashoffset:0"
       id="path1600"
       cx="81.517456"
       cy="77.297516"
       r="1.1438032" />
    <path
       style="fill:none;stroke:#000000;stroke-width:0.539371px;stroke-linecap:butt;stroke-linejoin:miter;stroke-opacity:1"
       d="M 123.50346,66.117191 81.422114,77.392854 123.60521,88.695779"
       id="path1612" />
    <path
       style="fill:none;stroke:#000000;stroke-width:0.539371px;stroke-linecap:butt;stroke-linejoin:miter;stroke-opacity:1"
       d="M 115.27083,68.430097 105.16388,83.685856"
       id="path1616" />
    <path
       style="fill:#f5ff0f;fill-opacity:1;stroke:#ff0000;stroke-width:0.539371px;stroke-linecap:butt;stroke-linejoin:miter;stroke-opacity:1"
       d="m 105.16388,70.990246 v 12.69561"
       id="path1614"
       sodipodi:nodetypes="cc" />
    <path
       style="fill:none;stroke:#000000;stroke-width:0.540222;stroke-linecap:butt;stroke-linejoin:miter;stroke-miterlimit:4;stroke-dasharray:none;stroke-opacity:1;marker-end:url(#Arrow1Send)"
       d="m 105.25924,77.392854 h 18.21157"
       id="path1618"
       sodipodi:nodetypes="cc" />
    <path
       style="fill:none;stroke:#000000;stroke-width:0.539371px;stroke-linecap:butt;stroke-linejoin:miter;stroke-opacity:1;marker-start:url(#marker1422)"
       d="M 121.10512,85.094667 109.31251,77.282052"
       id="path1757"
       sodipodi:nodetypes="cc" />
    <path
       style="fill:none;fill-opacity:1;stroke:#000000;stroke-width:0.336365;stroke-miterlimit:4;stroke-dasharray:none;stroke-dashoffset:0;stroke-opacity:1"
       id="path5097"
       sodipodi:type="arc"
       sodipodi:cx="109.31251"
       sodipodi:cy="77.282059"
       sodipodi:rx="3.9581401"
       sodipodi:ry="3.9581401"
       sodipodi:start="0"
       sodipodi:end="0.56863742"
       sodipodi:arc-type="arc"
       d="m 113.27065,77.282059 a 3.9581401,3.9581401 0 0 1 -0.62287,2.131396"
       sodipodi:open="true" />
    <g
       transform="matrix(0.4749012,0,0,0.4749012,115.72198,77.927131)"
       ns3:version="1.2.0"
       ns3:texconverter="pdflatex"
       ns3:pdfconverter="inkscape"
       ns3:text="$\theta_i$"
       ns3:preamble="C:\Users\TCZ\AppData\Roaming\inkscape\extensions\textext\default_packages.tex"
       ns3:scale="1.0"
       ns3:alignment="middle center"
       ns3:inkscapeversion="1.0.1"
       ns3:jacobian_sqrt="0.352778"
       id="g5141">
      <defs
         id="id-41a10006-ff8c-4d9c-b5a2-564ffea20d96">
        <g
           id="id-e81f4171-07c0-4e32-b2b5-579250e80152">
          <symbol
             overflow="visible"
             id="id-0316c90e-1ccd-486f-a87b-c1cb6aff7930">
            <path
               style="stroke:none;stroke-width:0"
               d=""
               id="id-f0be2fbb-9d33-4dd8-bbeb-b5fd4ff33972" />
          </symbol>
          <symbol
             overflow="visible"
             id="id-b9574ae1-4f73-4055-a30c-ed7ae3e004f2">
            <path
               style="stroke:none;stroke-width:0"
               d="m 4.53125,-4.984375 c 0,-0.65625 -0.171875,-2.046875 -1.1875,-2.046875 -1.390625,0 -2.921875,2.8125 -2.921875,5.09375 0,0.9375 0.28125,2.046875 1.1875,2.046875 1.40625,0 2.921875,-2.859375 2.921875,-5.09375 z M 1.46875,-3.625 C 1.640625,-4.25 1.84375,-5.046875 2.25,-5.765625 2.515625,-6.25 2.875,-6.8125 3.328125,-6.8125 c 0.484375,0 0.546875,0.640625 0.546875,1.203125 0,0.5 -0.078125,1 -0.3125,1.984375 z m 2,0.328125 C 3.359375,-2.84375 3.15625,-2 2.765625,-1.28125 c -0.34375,0.6875 -0.71875,1.171875 -1.15625,1.171875 -0.328125,0 -0.53125,-0.296875 -0.53125,-1.21875 0,-0.421875 0.0625,-1 0.3125,-1.96875 z m 0,0"
               id="id-5c239c8d-f2e8-4be6-a6dc-b7eb4276176a" />
          </symbol>
          <symbol
             overflow="visible"
             id="id-a60fec2a-1217-47d4-aae3-471f978f58de">
            <path
               style="stroke:none;stroke-width:0"
               d=""
               id="id-6bb12956-1e22-4d06-9baa-8058a9a9116e" />
          </symbol>
          <symbol
             overflow="visible"
             id="id-daa92a6b-cfc9-49e2-affb-cdcf6dec4ae4">
            <path
               style="stroke:none;stroke-width:0"
               d="m 2.265625,-4.359375 c 0,-0.109375 -0.09375,-0.265625 -0.28125,-0.265625 -0.1875,0 -0.390625,0.1875 -0.390625,0.390625 0,0.109375 0.078125,0.265625 0.28125,0.265625 0.1875,0 0.390625,-0.203125 0.390625,-0.390625 z M 0.84375,-0.8125 c -0.03125,0.09375 -0.0625,0.171875 -0.0625,0.296875 0,0.328125 0.265625,0.578125 0.65625,0.578125 0.6875,0 1,-0.953125 1,-1.0625 0,-0.09375 -0.09375,-0.09375 -0.109375,-0.09375 -0.09375,0 -0.109375,0.046875 -0.140625,0.125 -0.15625,0.5625 -0.453125,0.84375 -0.734375,0.84375 -0.140625,0 -0.171875,-0.09375 -0.171875,-0.25 0,-0.15625 0.046875,-0.28125 0.109375,-0.4375 C 1.46875,-1 1.546875,-1.1875 1.609375,-1.375 1.671875,-1.546875 1.9375,-2.171875 1.953125,-2.265625 1.984375,-2.328125 2,-2.40625 2,-2.484375 2,-2.8125 1.71875,-3.078125 1.34375,-3.078125 0.640625,-3.078125 0.328125,-2.125 0.328125,-2 c 0,0.078125 0.09375,0.078125 0.125,0.078125 0.09375,0 0.09375,-0.03125 0.125,-0.109375 C 0.75,-2.625 1.0625,-2.875 1.3125,-2.875 c 0.109375,0 0.171875,0.046875 0.171875,0.234375 0,0.171875 -0.03125,0.265625 -0.203125,0.703125 z m 0,0"
               id="id-5922309c-0df0-4552-821b-19f4553ea7e9" />
          </symbol>
        </g>
      </defs>
      <g
         id="id-e6df9494-63e6-4df7-a187-c11d65e17638"
         transform="translate(-149.134,-127.734)">
        <g
           style="fill:#000000;fill-opacity:1"
           id="id-d903c849-912f-473a-ba85-0ed5289fe630">
          <g
             transform="translate(148.712,134.765)"
             id="g5133">
            <path
               style="stroke:none;stroke-width:0"
               d="m 4.53125,-4.984375 c 0,-0.65625 -0.171875,-2.046875 -1.1875,-2.046875 -1.390625,0 -2.921875,2.8125 -2.921875,5.09375 0,0.9375 0.28125,2.046875 1.1875,2.046875 1.40625,0 2.921875,-2.859375 2.921875,-5.09375 z M 1.46875,-3.625 C 1.640625,-4.25 1.84375,-5.046875 2.25,-5.765625 2.515625,-6.25 2.875,-6.8125 3.328125,-6.8125 c 0.484375,0 0.546875,0.640625 0.546875,1.203125 0,0.5 -0.078125,1 -0.3125,1.984375 z m 2,0.328125 C 3.359375,-2.84375 3.15625,-2 2.765625,-1.28125 c -0.34375,0.6875 -0.71875,1.171875 -1.15625,1.171875 -0.328125,0 -0.53125,-0.296875 -0.53125,-1.21875 0,-0.421875 0.0625,-1 0.3125,-1.96875 z m 0,0"
               id="id-9fdd3130-ba7a-4627-94d3-df6196927b52" />
          </g>
        </g>
        <g
           style="fill:#000000;fill-opacity:1"
           id="id-cc6aad2a-b328-434f-886f-1a3f417b5499">
          <g
             transform="translate(153.389,136.259)"
             id="g5137">
            <path
               style="stroke:none;stroke-width:0"
               d="m 2.265625,-4.359375 c 0,-0.109375 -0.09375,-0.265625 -0.28125,-0.265625 -0.1875,0 -0.390625,0.1875 -0.390625,0.390625 0,0.109375 0.078125,0.265625 0.28125,0.265625 0.1875,0 0.390625,-0.203125 0.390625,-0.390625 z M 0.84375,-0.8125 c -0.03125,0.09375 -0.0625,0.171875 -0.0625,0.296875 0,0.328125 0.265625,0.578125 0.65625,0.578125 0.6875,0 1,-0.953125 1,-1.0625 0,-0.09375 -0.09375,-0.09375 -0.109375,-0.09375 -0.09375,0 -0.109375,0.046875 -0.140625,0.125 -0.15625,0.5625 -0.453125,0.84375 -0.734375,0.84375 -0.140625,0 -0.171875,-0.09375 -0.171875,-0.25 0,-0.15625 0.046875,-0.28125 0.109375,-0.4375 C 1.46875,-1 1.546875,-1.1875 1.609375,-1.375 1.671875,-1.546875 1.9375,-2.171875 1.953125,-2.265625 1.984375,-2.328125 2,-2.40625 2,-2.484375 2,-2.8125 1.71875,-3.078125 1.34375,-3.078125 0.640625,-3.078125 0.328125,-2.125 0.328125,-2 c 0,0.078125 0.09375,0.078125 0.125,0.078125 0.09375,0 0.09375,-0.03125 0.125,-0.109375 C 0.75,-2.625 1.0625,-2.875 1.3125,-2.875 c 0.109375,0 0.171875,0.046875 0.171875,0.234375 0,0.171875 -0.03125,0.265625 -0.203125,0.703125 z m 0,0"
               id="id-4a740e69-b70d-47a2-ba34-968a52a768ef" />
          </g>
        </g>
      </g>
    </g>
    <g
       transform="matrix(0.352778,0,0,0.352778,102.16606,84.651286)"
       ns3:version="1.2.0"
       ns3:texconverter="pdflatex"
       ns3:pdfconverter="inkscape"
       ns3:text="$\omega_i$"
       ns3:preamble="C:\Users\TCZ\AppData\Roaming\inkscape\extensions\textext\default_packages.tex"
       ns3:scale="1.0"
       ns3:alignment="middle center"
       ns3:inkscapeversion="1.0.1"
       ns3:jacobian_sqrt="0.352778"
       id="g5223">
      <defs
         id="id-721de5b9-b4df-4071-a9a5-67e6561de712">
        <g
           id="id-bbfd2a13-8b11-459a-ae3b-8d3d7f53f460">
          <symbol
             overflow="visible"
             id="id-5fe5d6dc-6298-4d81-b26d-c2d301d41661">
            <path
               style="stroke:none;stroke-width:0"
               d=""
               id="id-89dfa903-ee29-4c01-8696-925d9f2c123d" />
          </symbol>
          <symbol
             overflow="visible"
             id="id-adb16fcd-a458-47fe-a0a2-547b377fe902">
            <path
               style="stroke:none;stroke-width:0"
               d="m 6.03125,-3.703125 c 0,-0.453125 -0.171875,-0.703125 -0.40625,-0.703125 -0.25,0 -0.515625,0.234375 -0.515625,0.46875 0,0.09375 0.046875,0.203125 0.140625,0.296875 0.171875,0.15625 0.359375,0.421875 0.359375,0.84375 0,0.390625 -0.203125,0.96875 -0.5,1.421875 C 4.8125,-0.953125 4.4375,-0.609375 3.96875,-0.609375 3.40625,-0.609375 3.09375,-0.96875 3,-1.5 c 0.109375,-0.265625 0.34375,-0.90625 0.34375,-1.1875 0,-0.109375 -0.046875,-0.21875 -0.1875,-0.21875 -0.078125,0 -0.1875,0.03125 -0.265625,0.171875 C 2.78125,-2.53125 2.65625,-1.890625 2.65625,-1.53125 2.328125,-1.0625 1.9375,-0.609375 1.3125,-0.609375 c -0.671875,0 -0.875,-0.59375 -0.875,-1.140625 0,-1.25 1.015625,-2.296875 1.015625,-2.421875 0,-0.109375 -0.078125,-0.1875 -0.1875,-0.1875 -0.125,0 -0.203125,0.125 -0.265625,0.21875 -0.5,0.734375 -0.875,1.921875 -0.875,2.828125 0,0.6875 0.21875,1.421875 1.046875,1.421875 0.703125,0 1.171875,-0.5 1.53125,-1.046875 0.09375,0.578125 0.484375,1.046875 1.09375,1.046875 0.78125,0 1.25,-0.609375 1.609375,-1.359375 0.25,-0.484375 0.625,-1.84375 0.625,-2.453125 z m 0,0"
               id="id-7216526c-f749-4045-9fb2-5a3d4a94edb5" />
          </symbol>
          <symbol
             overflow="visible"
             id="id-c2bc630b-11a5-463f-b294-1ab84d1cd605">
            <path
               style="stroke:none;stroke-width:0"
               d=""
               id="id-b197bdea-aacd-4d1b-9a53-65cc8700d32c" />
          </symbol>
          <symbol
             overflow="visible"
             id="id-98d78664-ee44-42e8-84e4-2b4cc4139d5f">
            <path
               style="stroke:none;stroke-width:0"
               d="m 2.265625,-4.359375 c 0,-0.109375 -0.09375,-0.265625 -0.28125,-0.265625 -0.1875,0 -0.390625,0.1875 -0.390625,0.390625 0,0.109375 0.078125,0.265625 0.28125,0.265625 0.1875,0 0.390625,-0.203125 0.390625,-0.390625 z M 0.84375,-0.8125 c -0.03125,0.09375 -0.0625,0.171875 -0.0625,0.296875 0,0.328125 0.265625,0.578125 0.65625,0.578125 0.6875,0 1,-0.953125 1,-1.0625 0,-0.09375 -0.09375,-0.09375 -0.109375,-0.09375 -0.09375,0 -0.109375,0.046875 -0.140625,0.125 -0.15625,0.5625 -0.453125,0.84375 -0.734375,0.84375 -0.140625,0 -0.171875,-0.09375 -0.171875,-0.25 0,-0.15625 0.046875,-0.28125 0.109375,-0.4375 C 1.46875,-1 1.546875,-1.1875 1.609375,-1.375 1.671875,-1.546875 1.9375,-2.171875 1.953125,-2.265625 1.984375,-2.328125 2,-2.40625 2,-2.484375 2,-2.8125 1.71875,-3.078125 1.34375,-3.078125 0.640625,-3.078125 0.328125,-2.125 0.328125,-2 c 0,0.078125 0.09375,0.078125 0.125,0.078125 0.09375,0 0.09375,-0.03125 0.125,-0.109375 C 0.75,-2.625 1.0625,-2.875 1.3125,-2.875 c 0.109375,0 0.171875,0.046875 0.171875,0.234375 0,0.171875 -0.03125,0.265625 -0.203125,0.703125 z m 0,0"
               id="id-e06116a7-83c4-4888-95e2-8be8ffc9f6c4" />
          </symbol>
        </g>
      </defs>
      <g
         id="id-46a9c332-51a4-4193-a0f9-c9646e7ea8f5"
         transform="translate(-148.837,-130.359)">
        <g
           id="g5251"
           transform="matrix(2.0385736,0,0,2.0385736,-90.34644,-161.03563)">
          <g
             style="fill:#000000;fill-opacity:1"
             id="id-9763350d-84a4-4850-9924-55a77daa4629">
            <g
               transform="translate(148.712,134.765)"
               id="g5215">
              <path
                 style="stroke:none;stroke-width:0"
                 d="m 6.03125,-3.703125 c 0,-0.453125 -0.171875,-0.703125 -0.40625,-0.703125 -0.25,0 -0.515625,0.234375 -0.515625,0.46875 0,0.09375 0.046875,0.203125 0.140625,0.296875 0.171875,0.15625 0.359375,0.421875 0.359375,0.84375 0,0.390625 -0.203125,0.96875 -0.5,1.421875 C 4.8125,-0.953125 4.4375,-0.609375 3.96875,-0.609375 3.40625,-0.609375 3.09375,-0.96875 3,-1.5 c 0.109375,-0.265625 0.34375,-0.90625 0.34375,-1.1875 0,-0.109375 -0.046875,-0.21875 -0.1875,-0.21875 -0.078125,0 -0.1875,0.03125 -0.265625,0.171875 C 2.78125,-2.53125 2.65625,-1.890625 2.65625,-1.53125 2.328125,-1.0625 1.9375,-0.609375 1.3125,-0.609375 c -0.671875,0 -0.875,-0.59375 -0.875,-1.140625 0,-1.25 1.015625,-2.296875 1.015625,-2.421875 0,-0.109375 -0.078125,-0.1875 -0.1875,-0.1875 -0.125,0 -0.203125,0.125 -0.265625,0.21875 -0.5,0.734375 -0.875,1.921875 -0.875,2.828125 0,0.6875 0.21875,1.421875 1.046875,1.421875 0.703125,0 1.171875,-0.5 1.53125,-1.046875 0.09375,0.578125 0.484375,1.046875 1.09375,1.046875 0.78125,0 1.25,-0.609375 1.609375,-1.359375 0.25,-0.484375 0.625,-1.84375 0.625,-2.453125 z m 0,0"
                 id="id-ab8aad4b-1d62-47b1-8e60-839644ccd13d" />
            </g>
          </g>
          <g
             style="fill:#000000;fill-opacity:1"
             id="id-3e815745-f33b-4b1b-b69e-182b0deab174">
            <g
               transform="translate(154.914,136.259)"
               id="g5219">
              <path
                 style="stroke:none;stroke-width:0"
                 d="m 2.265625,-4.359375 c 0,-0.109375 -0.09375,-0.265625 -0.28125,-0.265625 -0.1875,0 -0.390625,0.1875 -0.390625,0.390625 0,0.109375 0.078125,0.265625 0.28125,0.265625 0.1875,0 0.390625,-0.203125 0.390625,-0.390625 z M 0.84375,-0.8125 c -0.03125,0.09375 -0.0625,0.171875 -0.0625,0.296875 0,0.328125 0.265625,0.578125 0.65625,0.578125 0.6875,0 1,-0.953125 1,-1.0625 0,-0.09375 -0.09375,-0.09375 -0.109375,-0.09375 -0.09375,0 -0.109375,0.046875 -0.140625,0.125 -0.15625,0.5625 -0.453125,0.84375 -0.734375,0.84375 -0.140625,0 -0.171875,-0.09375 -0.171875,-0.25 0,-0.15625 0.046875,-0.28125 0.109375,-0.4375 C 1.46875,-1 1.546875,-1.1875 1.609375,-1.375 1.671875,-1.546875 1.9375,-2.171875 1.953125,-2.265625 1.984375,-2.328125 2,-2.40625 2,-2.484375 2,-2.8125 1.71875,-3.078125 1.34375,-3.078125 0.640625,-3.078125 0.328125,-2.125 0.328125,-2 c 0,0.078125 0.09375,0.078125 0.125,0.078125 0.09375,0 0.09375,-0.03125 0.125,-0.109375 C 0.75,-2.625 1.0625,-2.875 1.3125,-2.875 c 0.109375,0 0.171875,0.046875 0.171875,0.234375 0,0.171875 -0.03125,0.265625 -0.203125,0.703125 z m 0,0"
                 id="id-716fc8a7-bcf0-4642-846e-07c3cba65335" />
            </g>
          </g>
        </g>
        <g
           transform="matrix(1.4515298,0,0,1.4515298,205.06034,130.15827)"
           ns3:version="1.2.0"
           ns3:texconverter="pdflatex"
           ns3:pdfconverter="inkscape"
           ns3:text="$\omega_n$"
           ns3:preamble="C:\Users\TCZ\AppData\Roaming\inkscape\extensions\textext\default_packages.tex"
           ns3:scale="1.0"
           ns3:alignment="middle center"
           ns3:inkscapeversion="1.0.1"
           ns3:jacobian_sqrt="0.352778"
           id="g5330">
          <defs
             id="id-0e86f02f-b33a-4d91-ad9a-e5dcd956ee2b">
            <g
               id="id-363b5ed9-3782-4177-8ea2-74edeb3eb929">
              <symbol
                 overflow="visible"
                 id="id-d35327d1-17ca-4d62-8745-793030a57e4f">
                <path
                   style="stroke:none;stroke-width:0"
                   d=""
                   id="id-31d3c833-1c7b-4f17-a352-a40384338ea4" />
              </symbol>
              <symbol
                 overflow="visible"
                 id="id-cd22029f-6754-498e-814a-597d0c905008">
                <path
                   style="stroke:none;stroke-width:0"
                   d="m 6.03125,-3.703125 c 0,-0.453125 -0.171875,-0.703125 -0.40625,-0.703125 -0.25,0 -0.515625,0.234375 -0.515625,0.46875 0,0.09375 0.046875,0.203125 0.140625,0.296875 0.171875,0.15625 0.359375,0.421875 0.359375,0.84375 0,0.390625 -0.203125,0.96875 -0.5,1.421875 C 4.8125,-0.953125 4.4375,-0.609375 3.96875,-0.609375 3.40625,-0.609375 3.09375,-0.96875 3,-1.5 c 0.109375,-0.265625 0.34375,-0.90625 0.34375,-1.1875 0,-0.109375 -0.046875,-0.21875 -0.1875,-0.21875 -0.078125,0 -0.1875,0.03125 -0.265625,0.171875 C 2.78125,-2.53125 2.65625,-1.890625 2.65625,-1.53125 2.328125,-1.0625 1.9375,-0.609375 1.3125,-0.609375 c -0.671875,0 -0.875,-0.59375 -0.875,-1.140625 0,-1.25 1.015625,-2.296875 1.015625,-2.421875 0,-0.109375 -0.078125,-0.1875 -0.1875,-0.1875 -0.125,0 -0.203125,0.125 -0.265625,0.21875 -0.5,0.734375 -0.875,1.921875 -0.875,2.828125 0,0.6875 0.21875,1.421875 1.046875,1.421875 0.703125,0 1.171875,-0.5 1.53125,-1.046875 0.09375,0.578125 0.484375,1.046875 1.09375,1.046875 0.78125,0 1.25,-0.609375 1.609375,-1.359375 0.25,-0.484375 0.625,-1.84375 0.625,-2.453125 z m 0,0"
                   id="id-5b79184d-1eba-4d3c-ba9c-0b74e682dbf2" />
              </symbol>
              <symbol
                 overflow="visible"
                 id="id-6d985e6b-bf67-417c-90eb-dfa32f46ba69">
                <path
                   style="stroke:none;stroke-width:0"
                   d=""
                   id="id-e1a94480-ba35-4703-9b4e-09185fe84ff1" />
              </symbol>
              <symbol
                 overflow="visible"
                 id="id-76258900-e71c-4299-abf8-2383a6359245">
                <path
                   style="stroke:none;stroke-width:0"
                   d="m 0.84375,-0.4375 c -0.015625,0.09375 -0.0625,0.265625 -0.0625,0.28125 0,0.15625 0.125,0.21875 0.234375,0.21875 0.125,0 0.234375,-0.078125 0.28125,-0.140625 0.03125,-0.0625 0.078125,-0.296875 0.125,-0.4375 0.03125,-0.125 0.109375,-0.453125 0.140625,-0.625 0.046875,-0.15625 0.09375,-0.3125 0.125,-0.46875 0.078125,-0.28125 0.09375,-0.34375 0.296875,-0.625 C 2.171875,-2.515625 2.5,-2.875 3.03125,-2.875 c 0.390625,0 0.40625,0.359375 0.40625,0.484375 0,0.421875 -0.296875,1.1875 -0.40625,1.484375 -0.078125,0.203125 -0.109375,0.265625 -0.109375,0.375 0,0.375 0.296875,0.59375 0.65625,0.59375 0.703125,0 1,-0.953125 1,-1.0625 0,-0.09375 -0.078125,-0.09375 -0.109375,-0.09375 -0.09375,0 -0.09375,0.046875 -0.125,0.125 C 4.1875,-0.40625 3.875,-0.125 3.609375,-0.125 c -0.15625,0 -0.1875,-0.09375 -0.1875,-0.25 0,-0.15625 0.046875,-0.25 0.171875,-0.5625 0.078125,-0.21875 0.359375,-0.953125 0.359375,-1.34375 0,-0.671875 -0.53125,-0.796875 -0.90625,-0.796875 -0.578125,0 -0.96875,0.359375 -1.171875,0.640625 -0.046875,-0.484375 -0.453125,-0.640625 -0.75,-0.640625 -0.296875,0 -0.453125,0.21875 -0.546875,0.375 -0.15625,0.265625 -0.25,0.65625 -0.25,0.703125 0,0.078125 0.09375,0.078125 0.125,0.078125 0.09375,0 0.09375,-0.015625 0.140625,-0.203125 0.109375,-0.40625 0.25,-0.75 0.515625,-0.75 0.1875,0 0.234375,0.15625 0.234375,0.34375 0,0.125 -0.0625,0.390625 -0.125,0.578125 -0.046875,0.1875 -0.109375,0.46875 -0.140625,0.625 z m 0,0"
                   id="id-b1453f05-6e2e-445b-852f-6dc642eafcc6" />
              </symbol>
            </g>
          </defs>
          <g
             id="id-13c18477-55ea-4434-9a4c-de35faa02e3c"
             transform="translate(-148.837,-130.359)">
            <g
               style="fill:#000000;fill-opacity:1"
               id="id-1171ad3c-ef88-47a7-b5e5-2f2068371647">
              <g
                 transform="translate(148.712,134.765)"
                 id="g5322">
                <path
                   style="stroke:none;stroke-width:0"
                   d="m 6.03125,-3.703125 c 0,-0.453125 -0.171875,-0.703125 -0.40625,-0.703125 -0.25,0 -0.515625,0.234375 -0.515625,0.46875 0,0.09375 0.046875,0.203125 0.140625,0.296875 0.171875,0.15625 0.359375,0.421875 0.359375,0.84375 0,0.390625 -0.203125,0.96875 -0.5,1.421875 C 4.8125,-0.953125 4.4375,-0.609375 3.96875,-0.609375 3.40625,-0.609375 3.09375,-0.96875 3,-1.5 c 0.109375,-0.265625 0.34375,-0.90625 0.34375,-1.1875 0,-0.109375 -0.046875,-0.21875 -0.1875,-0.21875 -0.078125,0 -0.1875,0.03125 -0.265625,0.171875 C 2.78125,-2.53125 2.65625,-1.890625 2.65625,-1.53125 2.328125,-1.0625 1.9375,-0.609375 1.3125,-0.609375 c -0.671875,0 -0.875,-0.59375 -0.875,-1.140625 0,-1.25 1.015625,-2.296875 1.015625,-2.421875 0,-0.109375 -0.078125,-0.1875 -0.1875,-0.1875 -0.125,0 -0.203125,0.125 -0.265625,0.21875 -0.5,0.734375 -0.875,1.921875 -0.875,2.828125 0,0.6875 0.21875,1.421875 1.046875,1.421875 0.703125,0 1.171875,-0.5 1.53125,-1.046875 0.09375,0.578125 0.484375,1.046875 1.09375,1.046875 0.78125,0 1.25,-0.609375 1.609375,-1.359375 0.25,-0.484375 0.625,-1.84375 0.625,-2.453125 z m 0,0"
                   id="id-e9825f5d-a0d8-4baf-877d-5a0c3cd829c5" />
              </g>
            </g>
            <g
               style="fill:#000000;fill-opacity:1"
               id="id-b79d6a2f-5320-41ed-88be-149b3bb85c74">
              <g
                 transform="translate(154.914,136.259)"
                 id="g5326">
                <path
                   style="stroke:none;stroke-width:0"
                   d="m 0.84375,-0.4375 c -0.015625,0.09375 -0.0625,0.265625 -0.0625,0.28125 0,0.15625 0.125,0.21875 0.234375,0.21875 0.125,0 0.234375,-0.078125 0.28125,-0.140625 0.03125,-0.0625 0.078125,-0.296875 0.125,-0.4375 0.03125,-0.125 0.109375,-0.453125 0.140625,-0.625 0.046875,-0.15625 0.09375,-0.3125 0.125,-0.46875 0.078125,-0.28125 0.09375,-0.34375 0.296875,-0.625 C 2.171875,-2.515625 2.5,-2.875 3.03125,-2.875 c 0.390625,0 0.40625,0.359375 0.40625,0.484375 0,0.421875 -0.296875,1.1875 -0.40625,1.484375 -0.078125,0.203125 -0.109375,0.265625 -0.109375,0.375 0,0.375 0.296875,0.59375 0.65625,0.59375 0.703125,0 1,-0.953125 1,-1.0625 0,-0.09375 -0.078125,-0.09375 -0.109375,-0.09375 -0.09375,0 -0.09375,0.046875 -0.125,0.125 C 4.1875,-0.40625 3.875,-0.125 3.609375,-0.125 c -0.15625,0 -0.1875,-0.09375 -0.1875,-0.25 0,-0.15625 0.046875,-0.25 0.171875,-0.5625 0.078125,-0.21875 0.359375,-0.953125 0.359375,-1.34375 0,-0.671875 -0.53125,-0.796875 -0.90625,-0.796875 -0.578125,0 -0.96875,0.359375 -1.171875,0.640625 -0.046875,-0.484375 -0.453125,-0.640625 -0.75,-0.640625 -0.296875,0 -0.453125,0.21875 -0.546875,0.375 -0.15625,0.265625 -0.25,0.65625 -0.25,0.703125 0,0.078125 0.09375,0.078125 0.125,0.078125 0.09375,0 0.09375,-0.015625 0.140625,-0.203125 0.109375,-0.40625 0.25,-0.75 0.515625,-0.75 0.1875,0 0.234375,0.15625 0.234375,0.34375 0,0.125 -0.0625,0.390625 -0.125,0.578125 -0.046875,0.1875 -0.109375,0.46875 -0.140625,0.625 z m 0,0"
                   id="id-759006b8-9691-4f5d-a260-5b19c9d1debe" />
              </g>
            </g>
          </g>
        </g>
        <text
           xml:space="preserve"
           style="font-style:normal;font-weight:normal;font-size:61.1572px;line-height:1.25;font-family:sans-serif;fill:#000000;fill-opacity:1;stroke:none;stroke-width:1.52893"
           x="181.47919"
           y="82.551773"
           id="text5356"><tspan
             id="tspan5354"
             x="181.47919"
             y="82.551773"
             style="font-style:normal;font-variant:normal;font-weight:normal;font-stretch:normal;font-size:16.3085px;font-family:'Cambria Math';-inkscape-font-specification:'Cambria Math, Normal';font-variant-ligatures:normal;font-variant-caps:normal;font-variant-numeric:normal;font-variant-east-asian:normal;stroke-width:1.52893"
             sodipodi:role="line">P</tspan></text>
        <text
           xml:space="preserve"
           style="font-size:16.3086px;line-height:1.25;font-family:'Cambria Math';-inkscape-font-specification:'Cambria Math, Normal';stroke-width:1.52893"
           x="148.41655"
           y="88.233505"
           id="text5360"><tspan
             sodipodi:role="line"
             id="tspan5358"
             x="148.41655"
             y="88.233505"
             style="stroke-width:1.52893">M</tspan></text>
        <text
           xml:space="preserve"
           style="font-size:8.00002px;line-height:1.25;font-family:'Cambria Math';-inkscape-font-specification:'Cambria Math, Normal';stroke-width:0.75"
           x="133.52338"
           y="148.83636"
           id="text5364"><tspan
             sodipodi:role="line"
             id="tspan5362"
             x="133.52338"
             y="148.83636"
             style="stroke-width:0.75" /></text>
      </g>
    </g>
  </g>
</svg>
