<?xml version="1.0" encoding="UTF-8" standalone="no"?>
<svg
   xmlns:ns3="http://www.iki.fi/pav/software/textext/"
   xmlns:dc="http://purl.org/dc/elements/1.1/"
   xmlns:cc="http://creativecommons.org/ns#"
   xmlns:rdf="http://www.w3.org/1999/02/22-rdf-syntax-ns#"
   xmlns:svg="http://www.w3.org/2000/svg"
   xmlns="http://www.w3.org/2000/svg"
   xmlns:sodipodi="http://sodipodi.sourceforge.net/DTD/sodipodi-0.dtd"
   xmlns:inkscape="http://www.inkscape.org/namespaces/inkscape"
   width="48.15086mm"
   height="27.291315mm"
   viewBox="0 0 48.150859 27.291314"
   version="1.1"
   id="svg8"
   sodipodi:docname="sphere coor.svg"
   inkscape:version="1.0.1 (3bc2e813f5, 2020-09-07)">
  <defs
     id="defs2">
    <marker
       style="overflow:visible"
       id="Arrow1Send"
       refX="0"
       refY="0"
       orient="auto"
       inkscape:stockid="Arrow1Send"
       inkscape:isstock="true">
      <path
         transform="matrix(-0.2,0,0,-0.2,-1.2,0)"
         style="fill:#000000;fill-opacity:1;fill-rule:evenodd;stroke:#000000;stroke-width:1pt;stroke-opacity:1"
         d="M 0,0 5,-5 -12.5,0 5,5 Z"
         id="path907" />
    </marker>
    <marker
       style="overflow:visible"
       id="marker1422"
       refX="0"
       refY="0"
       orient="auto"
       inkscape:stockid="Arrow1Sstart"
       inkscape:isstock="true">
      <path
         transform="matrix(0.2,0,0,0.2,1.2,0)"
         style="fill:#000000;fill-opacity:1;fill-rule:evenodd;stroke:#000000;stroke-width:1pt;stroke-opacity:1"
         d="M 0,0 5,-5 -12.5,0 5,5 Z"
         id="path1420" />
    </marker>
    <marker
       style="overflow:visible"
       id="marker1412"
       refX="0"
       refY="0"
       orient="auto"
       inkscape:stockid="Arrow1Sstart"
       inkscape:isstock="true">
      <path
         transform="matrix(0.2,0,0,0.2,1.2,0)"
         style="fill:#000000;fill-opacity:1;fill-rule:evenodd;stroke:#000000;stroke-width:1pt;stroke-opacity:1"
         d="M 0,0 5,-5 -12.5,0 5,5 Z"
         id="path1410" />
    </marker>
    <marker
       style="overflow:visible"
       id="marker1402"
       refX="0"
       refY="0"
       orient="auto"
       inkscape:stockid="Arrow1Sstart"
       inkscape:isstock="true">
      <path
         transform="matrix(0.2,0,0,0.2,1.2,0)"
         style="fill:#000000;fill-opacity:1;fill-rule:evenodd;stroke:#000000;stroke-width:1pt;stroke-opacity:1"
         d="M 0,0 5,-5 -12.5,0 5,5 Z"
         id="path1400" />
    </marker>
    <marker
       style="overflow:visible"
       id="marker1316"
       refX="0"
       refY="0"
       orient="auto"
       inkscape:stockid="Arrow1Sstart"
       inkscape:isstock="true">
      <path
         transform="matrix(0.2,0,0,0.2,1.2,0)"
         style="fill:#000000;fill-opacity:1;fill-rule:evenodd;stroke:#000000;stroke-width:1pt;stroke-opacity:1"
         d="M 0,0 5,-5 -12.5,0 5,5 Z"
         id="path1314" />
    </marker>
    <marker
       style="overflow:visible"
       id="Arrow1Send-7"
       refX="0"
       refY="0"
       orient="auto"
       inkscape:stockid="Arrow1Send"
       inkscape:isstock="true">
      <path
         transform="matrix(-0.2,0,0,-0.2,-1.2,0)"
         style="fill:#000000;fill-opacity:1;fill-rule:evenodd;stroke:#000000;stroke-width:1pt;stroke-opacity:1"
         d="M 0,0 5,-5 -12.5,0 5,5 Z"
         id="path907-3" />
    </marker>
  </defs>
  <sodipodi:namedview
     id="base"
     pagecolor="#ffffff"
     bordercolor="#666666"
     borderopacity="1.0"
     inkscape:pageopacity="0.0"
     inkscape:pageshadow="2"
     inkscape:zoom="1"
     inkscape:cx="71.519455"
     inkscape:cy="66.488925"
     inkscape:document-units="mm"
     inkscape:current-layer="id-46a9c332-51a4-4193-a0f9-c9646e7ea8f5"
     inkscape:document-rotation="0"
     showgrid="false"
     inkscape:window-width="1346"
     inkscape:window-height="1041"
     inkscape:window-x="130"
     inkscape:window-y="0"
     inkscape:window-maximized="0"
     borderlayer="false"
     fit-margin-top="0"
     fit-margin-left="0"
     fit-margin-right="0"
     fit-margin-bottom="0" />
  <metadata
     id="metadata5">
    <rdf:RDF>
      <cc:Work
         rdf:about="">
        <dc:format>image/svg+xml</dc:format>
        <dc:type
           rdf:resource="http://purl.org/dc/dcmitype/StillImage" />
        <dc:title></dc:title>
      </cc:Work>
    </rdf:RDF>
  </metadata>
  <g
     inkscape:label="Layer 1"
     inkscape:groupmode="layer"
     id="layer1"
     transform="translate(-9.6408925,38.387568)">
    <g
       transform="matrix(0.352778,0,0,0.352778,102.16606,84.651286)"
       ns3:version="1.2.0"
       ns3:texconverter="pdflatex"
       ns3:pdfconverter="inkscape"
       ns3:text="$\omega_i$"
       ns3:preamble="C:\Users\TCZ\AppData\Roaming\inkscape\extensions\textext\default_packages.tex"
       ns3:scale="1.0"
       ns3:alignment="middle center"
       ns3:inkscapeversion="1.0.1"
       ns3:jacobian_sqrt="0.352778"
       id="g5223">
      <defs
         id="id-721de5b9-b4df-4071-a9a5-67e6561de712">
        <g
           id="id-bbfd2a13-8b11-459a-ae3b-8d3d7f53f460">
          <symbol
             overflow="visible"
             id="id-5fe5d6dc-6298-4d81-b26d-c2d301d41661">
            <path
               style="stroke:none;stroke-width:0"
               d=""
               id="id-89dfa903-ee29-4c01-8696-925d9f2c123d" />
          </symbol>
          <symbol
             overflow="visible"
             id="id-adb16fcd-a458-47fe-a0a2-547b377fe902">
            <path
               style="stroke:none;stroke-width:0"
               d="m 6.03125,-3.703125 c 0,-0.453125 -0.171875,-0.703125 -0.40625,-0.703125 -0.25,0 -0.515625,0.234375 -0.515625,0.46875 0,0.09375 0.046875,0.203125 0.140625,0.296875 0.171875,0.15625 0.359375,0.421875 0.359375,0.84375 0,0.390625 -0.203125,0.96875 -0.5,1.421875 C 4.8125,-0.953125 4.4375,-0.609375 3.96875,-0.609375 3.40625,-0.609375 3.09375,-0.96875 3,-1.5 c 0.109375,-0.265625 0.34375,-0.90625 0.34375,-1.1875 0,-0.109375 -0.046875,-0.21875 -0.1875,-0.21875 -0.078125,0 -0.1875,0.03125 -0.265625,0.171875 C 2.78125,-2.53125 2.65625,-1.890625 2.65625,-1.53125 2.328125,-1.0625 1.9375,-0.609375 1.3125,-0.609375 c -0.671875,0 -0.875,-0.59375 -0.875,-1.140625 0,-1.25 1.015625,-2.296875 1.015625,-2.421875 0,-0.109375 -0.078125,-0.1875 -0.1875,-0.1875 -0.125,0 -0.203125,0.125 -0.265625,0.21875 -0.5,0.734375 -0.875,1.921875 -0.875,2.828125 0,0.6875 0.21875,1.421875 1.046875,1.421875 0.703125,0 1.171875,-0.5 1.53125,-1.046875 0.09375,0.578125 0.484375,1.046875 1.09375,1.046875 0.78125,0 1.25,-0.609375 1.609375,-1.359375 0.25,-0.484375 0.625,-1.84375 0.625,-2.453125 z m 0,0"
               id="id-7216526c-f749-4045-9fb2-5a3d4a94edb5" />
          </symbol>
          <symbol
             overflow="visible"
             id="id-c2bc630b-11a5-463f-b294-1ab84d1cd605">
            <path
               style="stroke:none;stroke-width:0"
               d=""
               id="id-b197bdea-aacd-4d1b-9a53-65cc8700d32c" />
          </symbol>
          <symbol
             overflow="visible"
             id="id-98d78664-ee44-42e8-84e4-2b4cc4139d5f">
            <path
               style="stroke:none;stroke-width:0"
               d="m 2.265625,-4.359375 c 0,-0.109375 -0.09375,-0.265625 -0.28125,-0.265625 -0.1875,0 -0.390625,0.1875 -0.390625,0.390625 0,0.109375 0.078125,0.265625 0.28125,0.265625 0.1875,0 0.390625,-0.203125 0.390625,-0.390625 z M 0.84375,-0.8125 c -0.03125,0.09375 -0.0625,0.171875 -0.0625,0.296875 0,0.328125 0.265625,0.578125 0.65625,0.578125 0.6875,0 1,-0.953125 1,-1.0625 0,-0.09375 -0.09375,-0.09375 -0.109375,-0.09375 -0.09375,0 -0.109375,0.046875 -0.140625,0.125 -0.15625,0.5625 -0.453125,0.84375 -0.734375,0.84375 -0.140625,0 -0.171875,-0.09375 -0.171875,-0.25 0,-0.15625 0.046875,-0.28125 0.109375,-0.4375 C 1.46875,-1 1.546875,-1.1875 1.609375,-1.375 1.671875,-1.546875 1.9375,-2.171875 1.953125,-2.265625 1.984375,-2.328125 2,-2.40625 2,-2.484375 2,-2.8125 1.71875,-3.078125 1.34375,-3.078125 0.640625,-3.078125 0.328125,-2.125 0.328125,-2 c 0,0.078125 0.09375,0.078125 0.125,0.078125 0.09375,0 0.09375,-0.03125 0.125,-0.109375 C 0.75,-2.625 1.0625,-2.875 1.3125,-2.875 c 0.109375,0 0.171875,0.046875 0.171875,0.234375 0,0.171875 -0.03125,0.265625 -0.203125,0.703125 z m 0,0"
               id="id-e06116a7-83c4-4888-95e2-8be8ffc9f6c4" />
          </symbol>
        </g>
      </defs>
      <g
         id="id-46a9c332-51a4-4193-a0f9-c9646e7ea8f5"
         transform="translate(-148.837,-130.359)">
        <text
           xml:space="preserve"
           style="font-size:8.00002px;line-height:1.25;font-family:'Cambria Math';-inkscape-font-specification:'Cambria Math, Normal';stroke-width:0.75"
           x="133.52338"
           y="148.83636"
           id="text5364"><tspan
             sodipodi:role="line"
             id="tspan5362"
             x="133.52338"
             y="148.83636"
             style="stroke-width:0.75" /></text>
        <circle
           style="fill:none;fill-opacity:1;stroke:#000000;stroke-width:0.940919;stroke-miterlimit:4;stroke-dasharray:none;stroke-dashoffset:0;stroke-opacity:1"
           id="path5440"
           cx="-103.98373"
           cy="-178.98976"
           rx="51.20248"
           ry="29.428385"
           transform="matrix(1,0,-0.32394793,0.94607491,0,0)" />
        <path
           style="fill:none;stroke:#000000;stroke-width:0.953331px;stroke-linecap:butt;stroke-linejoin:miter;stroke-opacity:1"
           d="M -113.4389,-169.33734 H 23.051641"
           id="path5442" />
        <path
           style="fill:none;stroke:#000000;stroke-width:0.953331px;stroke-linecap:butt;stroke-linejoin:miter;stroke-opacity:1"
           d="m -45.943574,-169.12307 26.462446,-26.46246"
           id="path5444"
           sodipodi:nodetypes="cc" />
        <path
           style="fill:none;stroke:#000000;stroke-width:0.953331px;stroke-linecap:butt;stroke-linejoin:miter;stroke-opacity:1"
           d="m -20.231077,-218.19109 v 22.7127"
           id="path5446" />
        <path
           style="fill:none;stroke:#000000;stroke-width:0.953331px;stroke-linecap:butt;stroke-linejoin:miter;stroke-opacity:1"
           d="m -20.231077,-218.19109 -25.712497,49.06802"
           id="path5448" />
        <path
           style="fill:none;fill-opacity:1;stroke:#000000;stroke-width:0.502239;stroke-miterlimit:4;stroke-dasharray:none;stroke-dashoffset:0;stroke-opacity:1"
           id="path5450"
           transform="matrix(0.82599558,-0.5636766,0,1,0,0)"
           sodipodi:type="arc"
           sodipodi:cx="-55.622047"
           sodipodi:cy="-200.47594"
           sodipodi:rx="7.510376"
           sodipodi:ry="9.2601824"
           sodipodi:start="5.5785219"
           sodipodi:end="6.0656971"
           sodipodi:arc-type="arc"
           d="m -49.90042,-206.47447 a 7.510376,9.2601824 0 0 1 1.611823,4.00039"
           sodipodi:open="true" />
        <circle
           style="fill:none;fill-opacity:1;stroke:#000000;stroke-width:0.740235;stroke-miterlimit:4;stroke-dasharray:none;stroke-dashoffset:0;stroke-opacity:1"
           id="circle5452"
           cx="-116.30156"
           cy="-172.61278"
           transform="matrix(1,0,-0.32394793,0.94607491,0,0)"
           r="0" />
        <circle
           style="fill:none;fill-opacity:1;stroke:#000000;stroke-width:0.740235;stroke-miterlimit:4;stroke-dasharray:none;stroke-dashoffset:0;stroke-opacity:1"
           id="circle5454"
           cx="-116.30156"
           cy="-172.61278"
           transform="matrix(1,0,-0.32394793,0.94607491,0,0)"
           r="0" />
        <circle
           style="fill:none;fill-opacity:1;stroke:#000000;stroke-width:0.740235;stroke-miterlimit:4;stroke-dasharray:none;stroke-dashoffset:0;stroke-opacity:1"
           id="circle5456"
           cx="-116.30156"
           cy="-172.61278"
           transform="matrix(1,0,-0.32394793,0.94607491,0,0)"
           r="0" />
        <circle
           style="fill:none;fill-opacity:1;stroke:#000000;stroke-width:0.740235;stroke-miterlimit:4;stroke-dasharray:none;stroke-dashoffset:0;stroke-opacity:1"
           id="path5440-4"
           cx="-116.30156"
           cy="-172.61278"
           transform="matrix(1,0,-0.32394794,0.94607491,0,0)"
           r="0" />
        <circle
           style="fill:none;fill-opacity:1;stroke:#000000;stroke-width:0.740235;stroke-miterlimit:4;stroke-dasharray:none;stroke-dashoffset:0;stroke-opacity:1"
           id="path5440-3"
           cx="-116.30156"
           cy="-172.61278"
           transform="matrix(1,0,-0.32394794,0.94607491,0,0)"
           r="0" />
        <circle
           style="fill:none;fill-opacity:1;stroke:#000000;stroke-width:0.740235;stroke-miterlimit:4;stroke-dasharray:none;stroke-dashoffset:0;stroke-opacity:1"
           id="path5440-32"
           cx="-116.30156"
           cy="-172.61278"
           transform="matrix(1,0,-0.32394794,0.94607491,0,0)"
           r="0" />
        <circle
           style="fill:none;fill-opacity:1;stroke:#000000;stroke-width:0.740235;stroke-miterlimit:4;stroke-dasharray:none;stroke-dashoffset:0;stroke-opacity:1"
           id="path5440-6"
           cx="-116.30156"
           cy="-172.61278"
           transform="matrix(1,0,-0.32394794,0.94607491,0,0)"
           r="0" />
        <circle
           style="fill:none;fill-opacity:1;stroke:#000000;stroke-width:0.740235;stroke-miterlimit:4;stroke-dasharray:none;stroke-dashoffset:0;stroke-opacity:1"
           id="path5440-1"
           cx="-116.30156"
           cy="-172.61278"
           transform="matrix(1,0,-0.32394794,0.94607491,0,0)"
           r="0" />
        <circle
           style="fill:none;fill-opacity:1;stroke:#000000;stroke-width:0.740235;stroke-miterlimit:4;stroke-dasharray:none;stroke-dashoffset:0;stroke-opacity:1"
           id="path5440-69"
           cx="-116.30156"
           cy="-172.61278"
           transform="matrix(1,0,-0.32394794,0.94607491,0,0)"
           r="0" />
        <circle
           style="fill:none;fill-opacity:1;stroke:#000000;stroke-width:0.740235;stroke-miterlimit:4;stroke-dasharray:none;stroke-dashoffset:0;stroke-opacity:1"
           id="path5440-33"
           cx="-116.30156"
           cy="-172.61278"
           transform="matrix(1,0,-0.32394794,0.94607491,0,0)"
           r="0" />
        <path
           style="fill:none;fill-opacity:1;stroke:#000000;stroke-width:0.370673;stroke-miterlimit:4;stroke-dasharray:none;stroke-dashoffset:0;stroke-opacity:1"
           id="path5551"
           transform="matrix(1,0,-0.32739771,0.94488663,0,0)"
           sodipodi:type="arc"
           sodipodi:cx="-104.54372"
           sodipodi:cy="-178.9877"
           sodipodi:rx="11.08678"
           sodipodi:ry="6.5964146"
           sodipodi:start="5.0978824"
           sodipodi:end="6.2550866"
           sodipodi:open="true"
           sodipodi:arc-type="arc"
           d="m -100.37491,-185.10002 a 11.08678,6.5964146 0 0 1 6.913597,5.92699" />
        <text
           xml:space="preserve"
           style="font-size:10.1689px;line-height:1.25;font-family:'Cambria Math';-inkscape-font-specification:'Cambria Math, Normal';stroke-width:0.953331"
           x="-18.516901"
           y="-204.47775"
           id="text5557"><tspan
             sodipodi:role="line"
             id="tspan5555"
             x="-18.516901"
             y="-204.47775"
             style="stroke-width:0.953331">θ:zenith</tspan></text>
        <text
           xml:space="preserve"
           style="font-size:10.1689px;line-height:1.25;font-family:'Cambria Math';-inkscape-font-specification:'Cambria Math, Normal';stroke-width:0.953331"
           x="-28.801905"
           y="-175.97975"
           id="text5561"><tspan
             sodipodi:role="line"
             id="tspan5559"
             x="-28.801905"
             y="-175.97975"
             style="stroke-width:0.953331">φ:azimuth</tspan></text>
      </g>
    </g>
  </g>
</svg>
